<?xml version="1.0" encoding="UTF-8"?>
<!DOCTYPE svg PUBLIC "-//W3C//DTD SVG 1.1//EN" "http://www.w3.org/Graphics/SVG/1.1/DTD/svg11.dtd">
<!-- Creator: CorelDRAW -->
<svg xmlns="http://www.w3.org/2000/svg" xml:space="preserve" width="1080px" height="1080px" version="1.1" shape-rendering="geometricPrecision" text-rendering="geometricPrecision" image-rendering="optimizeQuality" fill-rule="evenodd" clip-rule="evenodd"
viewBox="0 0 1080 1080"
 xmlns:xlink="http://www.w3.org/1999/xlink"
 xmlns:xodm="http://www.corel.com/coreldraw/odm/2003">
 <g id="Layer_x0020_1">
  <metadata id="CorelCorpID_0Corel-Layer"/>
  <path fill="#47295C" d="M626 801c23,10 39,17 52,21 21,8 34,12 51,15 19,3 35,5 50,5 18,-1 37,-2 55,-6 19,-4 34,-9 52,-14 19,-6 33,-12 46,-16 15,-5 21,-7 30,-11 9,-4 18,-8 24,-12 6,-3 8,-5 10,-7 1,-1 2,-3 -2,-4 -4,-1 -11,-2 -20,-4 -10,-2 -22,-4 -38,-6 -16,-2 -35,-4 -54,-6 -19,-2 -38,-3 -59,-4 -21,-1 -44,-2 -67,-2 -23,0 -47,-1 -63,-1 -17,0 -27,-1 -37,-1 -10,0 -20,0 -31,-1 17,-3 35,-7 50,-10 16,-3 29,-7 44,-12 15,-5 30,-12 44,-19 14,-7 26,-15 37,-24 12,-9 23,-18 33,-28 10,-10 20,-20 28,-31 8,-10 15,-20 22,-31 7,-11 13,-22 19,-36 6,-14 12,-30 16,-44 4,-14 5,-25 6,-35 0,-10 0,-18 -1,-23 -1,-6 -4,-9 -9,-9 -6,-1 -15,1 -28,6 -13,5 -30,12 -48,20 -18,8 -36,18 -55,28 -18,11 -36,23 -50,32 -14,10 -23,17 -33,26 -11,9 -22,21 -33,32 -10,11 -19,22 -28,33 -9,11 -18,23 -25,33 -7,10 -22,33 -27,41 4,-9 17,-35 21,-45 4,-10 9,-22 13,-36 5,-15 9,-33 13,-54 4,-21 9,-43 11,-69 2,-26 3,-55 2,-79 -1,-24 -3,-44 -5,-61 -2,-17 -5,-30 -9,-44 -4,-14 -9,-28 -14,-41 -5,-13 -11,-25 -18,-36 -7,-11 -14,-21 -21,-27 -6,-6 -11,-8 -18,-6 -7,2 -16,7 -26,18 -11,10 -23,25 -34,41 -11,16 -21,33 -29,49 -9,16 -16,33 -21,49 -6,16 -9,33 -12,50 -3,17 -4,35 -5,53 0,19 0,38 3,59 2,21 7,44 11,63 4,19 9,34 14,49 5,14 9,28 13,39 4,12 7,21 10,31 -1,-1 -13,-21 -27,-42 -15,-24 -31,-50 -33,-53 -4,-6 -11,-17 -17,-27 -5,-7 -10,-13 -18,-24 -3,-4 -13,-15 -20,-24 -8,-9 -16,-16 -19,-20 -7,-6 -14,-12 -22,-18 -8,-6 -16,-12 -26,-19 -10,-7 -22,-15 -32,-21 -10,-6 -17,-10 -25,-15 -9,-4 -19,-9 -30,-14 -11,-5 -22,-9 -34,-12 -12,-4 -24,-6 -34,-8 -10,-2 -17,-3 -21,-3 -4,0 -6,0 -8,1 -1,1 -2,2 -1,5 1,3 2,8 4,12 2,4 4,7 7,12 3,5 7,12 10,20 4,7 7,15 10,23 3,8 6,16 10,27 4,11 9,25 15,40 6,15 12,31 17,44 5,13 10,24 15,34 5,10 11,20 16,29 6,9 12,16 19,24 7,8 17,16 25,23 9,7 17,13 26,18 9,6 19,11 33,17 14,6 31,14 45,20 14,6 24,8 34,12 -23,-1 -77,-6 -107,-9 -15,-2 -44,-4 -58,-5 -11,-1 -21,-2 -35,-2 -14,-1 -28,-1 -42,0 -14,1 -28,0 -41,1 -13,1 -24,2 -32,3 -8,1 -14,2 -15,4 -2,2 0,5 4,8 4,3 9,6 15,9 7,3 11,6 19,10 10,5 19,9 30,14 13,5 24,9 35,13 12,4 27,8 41,10 14,2 31,4 45,5 15,0 24,1 36,0 14,-1 29,-2 39,-3 21,-2 37,-4 56,-7 13,-3 33,-7 41,-9 13,-7 26,-13 40,-18 11,-4 21,-7 30,-10 0,-7 0,-16 0,-23 0,-7 0,-14 -1,-21 0,-6 -1,-12 -1,-20 -1,-7 -1,-16 -2,-26 -1,-9 -2,-19 -4,-30 -1,-10 -3,-21 -4,-29 -1,-6 -1,-10 -2,-16 0,-2 -1,-5 -1,-8 -1,-9 -2,-20 -2,-28 -1,-8 -1,-13 -2,-17 -1,-4 -1,-8 -2,-12 -1,-4 -1,-7 -3,-12 -1,-5 -3,-12 -4,-18 -2,-6 -3,-10 -4,-13 -1,-3 -2,-4 -2,-5 0,-1 -1,-1 -1,-1 -1,0 -1,0 -2,0 -1,0 -2,0 -3,-1 -1,0 -2,-1 -2,-2 -1,-1 -1,-2 -2,-3 0,-1 0,-3 0,-5 0,-1 0,-3 1,-4 1,-1 2,-2 3,-3 1,-1 2,-2 4,-2 1,-1 3,-1 4,-1 1,0 3,0 4,0 1,0 2,1 3,1 1,1 2,1 2,2 0,1 1,1 1,2 0,1 0,1 0,3 0,1 0,2 0,4 0,2 1,4 1,6 1,2 2,5 3,8 1,3 2,7 2,10 1,4 1,7 2,12 1,5 1,10 2,17 1,7 1,15 2,24 0,4 1,9 1,13 0,5 1,11 1,16 1,10 2,19 3,29 1,9 3,18 4,26 1,8 2,15 3,23 1,8 3,16 4,26 1,9 3,20 4,28 1,9 2,16 3,21 1,6 1,10 1,13 0,3 0,5 0,8 1,0 1,0 2,0 1,-6 2,-11 3,-18 1,-7 2,-14 3,-21 1,-7 2,-15 3,-23 1,-8 2,-16 2,-25 1,-8 1,-17 2,-25 0,-8 1,-16 1,-25 0,-9 1,-18 1,-26 0,-8 1,-16 1,-25 0,-9 0,-19 1,-31 0,-11 1,-24 1,-35 0,-11 1,-21 2,-29 1,-8 1,-16 2,-22 1,-6 1,-12 2,-18 1,-5 2,-11 3,-15 1,-4 2,-6 2,-8 0,-2 0,-2 0,-3 0,-1 0,-2 0,-2 0,-1 0,-2 0,-3 0,-1 1,-2 2,-3 1,-1 2,-2 3,-2 1,0 3,-1 4,0 2,0 3,1 5,2 1,1 3,2 4,3 1,1 2,3 3,4 1,1 1,3 1,4 0,1 0,2 0,3 0,1 0,2 -1,2 -1,1 -1,1 -2,2 -1,0 -1,1 -2,1 -1,0 -2,0 -2,0 -1,0 -1,0 -2,1 -1,0 -1,1 -2,2 -1,2 -1,4 -2,8 -1,3 -2,7 -2,13 -1,6 -2,14 -3,22 -1,8 -2,17 -3,27 -1,10 -2,21 -3,30 -1,9 -1,17 -2,26 0,9 -1,18 -1,26 0,8 -1,14 -1,21 0,7 -1,16 -1,24 0,8 0,16 -1,24 0,8 0,17 -1,27 0,10 0,21 -1,31 0,9 -1,16 -1,23 0,7 -1,15 -1,20 0,5 -1,8 -1,12 1,0 3,1 5,1l0 -1c0,-1 1,-3 2,-7 1,-4 3,-10 4,-16 2,-6 3,-13 5,-19 2,-6 3,-12 4,-18 1,-6 2,-14 4,-22 1,-8 2,-17 3,-25 1,-8 2,-15 2,-22 1,-7 1,-14 1,-21 0,-7 1,-13 1,-18 0,-5 1,-9 1,-14 1,-5 2,-10 3,-15 1,-5 2,-10 4,-15 1,-4 2,-8 3,-11 1,-3 2,-6 2,-8 1,-2 1,-4 1,-5 0,-2 1,-3 1,-4 0,-1 0,-1 0,-2 0,-1 -1,-1 -1,-2 0,-1 0,-2 0,-3 1,-1 2,-2 3,-3 1,-1 2,-1 4,-1 1,0 3,0 4,0 1,0 3,1 4,1 1,1 2,1 3,2 1,1 2,2 2,3 1,1 1,2 1,3 0,1 0,2 0,3 0,1 -1,2 -1,3 0,1 -1,1 -1,2 0,1 -1,1 -1,1 0,0 -1,0 -1,0 0,0 -1,0 -1,1 -1,1 -2,2 -3,4 -1,2 -3,4 -4,7 -2,3 -3,6 -5,11 -2,4 -4,10 -5,15 -2,5 -3,10 -4,15 -1,5 -2,9 -2,15 -1,5 -1,11 -2,17 0,6 -1,13 -1,20 0,6 -1,12 -1,18 0,6 -1,12 -2,18 -1,6 -2,13 -3,21 -1,8 -2,16 -3,24 -1,8 -2,15 -3,22 -1,7 -2,13 -2,18l-2 14c8,2 17,5 26,9 13,5 25,10 40,18zm45 38c5,3 11,5 16,7 8,3 16,7 25,10 8,3 17,6 26,8 9,2 19,4 28,6 9,1 17,2 27,2 10,0 21,-1 31,-2 10,-2 20,-4 30,-6 10,-3 19,-6 28,-9 9,-3 16,-7 23,-10 7,-3 14,-6 20,-9 6,-3 12,-6 17,-8 5,-3 18,-9 22,-11 11,-6 14,-8 24,-13 10,-5 24,-13 28,-17 5,-4 6,-6 7,-9 0,-3 -1,-5 -4,-8 -3,-3 -8,-5 -17,-8 -9,-2 -21,-5 -41,-7 -20,-3 -47,-6 -73,-8 -25,-2 -49,-4 -74,-4 -25,0 -51,0 -73,1 -22,1 -39,1 -56,2 9,-2 18,-3 27,-5 9,-2 18,-4 27,-7 9,-3 17,-6 27,-11 10,-5 23,-12 35,-20 12,-8 25,-17 37,-26 12,-10 23,-20 34,-32 11,-12 23,-27 33,-41 10,-14 18,-27 25,-42 7,-14 12,-30 15,-44 3,-14 5,-27 5,-37 0,-10 -1,-18 -2,-26 -2,-8 -5,-16 -8,-21 -4,-5 -8,-6 -14,-7 -6,0 -14,1 -23,3 -9,2 -20,6 -31,11 -11,5 -22,10 -32,15 -10,5 -19,10 -31,16 -12,6 -27,15 -42,24 -15,9 -31,20 -45,31 -14,11 -26,23 -38,35 -12,12 -23,25 -32,36 -9,11 -14,19 -20,27 4,-10 8,-19 13,-34 5,-15 11,-35 16,-60 5,-25 10,-54 12,-83 2,-29 1,-58 -2,-83 -2,-25 -6,-47 -11,-67 -5,-20 -12,-39 -18,-54 -6,-15 -13,-26 -21,-38 -8,-12 -18,-24 -26,-32 -8,-7 -13,-10 -18,-11 -5,-1 -10,-2 -16,0 -6,2 -15,6 -23,13 -9,7 -18,15 -27,26 -9,10 -18,22 -28,34 -9,12 -18,26 -27,42 -9,17 -18,37 -25,58 -7,22 -12,45 -15,70 -3,25 -3,52 -1,82 3,29 9,61 16,86 7,25 15,45 25,65 -6,-12 -13,-26 -22,-43 -3,-5 -7,-13 -11,-19 -4,-8 -8,-13 -13,-21 -7,-10 -14,-20 -20,-28 -12,-17 -26,-30 -38,-43 -12,-12 -22,-22 -33,-30 -11,-9 -22,-16 -35,-23 -12,-7 -26,-15 -42,-21 -16,-6 -34,-12 -50,-16 -17,-4 -32,-6 -44,-7 -12,-1 -19,0 -25,2 -6,2 -11,4 -13,6 -2,3 -2,5 -1,9 1,3 3,7 6,12 3,5 6,10 9,16 3,5 6,11 10,18 3,7 6,14 9,24 3,10 6,22 10,36 3,14 7,29 11,42 4,14 8,27 12,38 4,12 8,22 13,34 5,12 12,25 19,35 7,11 14,20 21,27 8,7 16,14 23,20 8,6 15,10 24,15 9,5 20,10 29,14 10,4 19,8 28,11 9,3 16,5 23,7 -38,-6 -50,-8 -61,-9 -16,-2 -52,-6 -62,-7 -11,-1 -21,-1 -33,-1 -12,0 -26,0 -40,1 -14,1 -29,2 -40,2 -11,1 -16,1 -22,2 -5,1 -10,1 -15,2 -5,1 -10,1 -14,3 -4,1 -7,3 -9,5 -2,2 -3,4 -2,8 1,3 4,8 7,11 3,3 5,5 10,8 5,4 7,5 16,11 8,5 18,12 27,18 9,5 16,10 24,14 7,4 14,8 21,11 7,3 14,6 21,9 7,3 14,5 23,7 9,2 19,4 28,6 9,1 18,2 28,2 9,0 19,-1 30,-2 10,-1 24,-3 32,-5 10,-2 21,-4 29,-7 22,-6 30,-8 48,-15 -5,5 -6,10 -7,11 -1,2 -1,4 -1,6 0,10 6,20 12,26 6,7 14,14 23,21 10,7 21,13 33,18 13,5 27,9 39,11 12,2 22,2 31,2 10,0 20,0 31,-2 12,-2 26,-6 39,-11 13,-5 24,-11 33,-18 10,-7 19,-16 23,-21 4,-5 11,-12 12,-23 0,-2 0,-4 0,-6zm-139 72c5,0 10,-1 17,-2 7,-1 16,-3 25,-6 9,-3 19,-7 28,-12 9,-5 17,-10 24,-16 8,-6 15,-13 17,-20 1,-3 1,-6 0,-8 -1,-4 -4,-8 -7,-11 -1,-1 -3,-3 -5,-4 -6,-4 -13,-7 -21,-11 -10,-4 -20,-8 -30,-12 -11,-4 -22,-7 -30,-8 -8,-2 -14,-3 -19,-3 -5,0 -11,1 -19,3 -8,2 -20,5 -30,8 -11,4 -20,7 -30,12 -7,3 -13,6 -18,9 -3,2 -5,3 -7,5 -3,3 -6,6 -7,9 -1,3 -1,6 0,10 2,7 10,14 17,20 8,6 15,11 24,16 9,5 18,9 28,12 9,3 18,5 25,6 7,1 12,2 17,2z"/>
 </g>
</svg>
