<?xml version="1.0" encoding="UTF-8"?>
<svg id="Layer_1" xmlns="http://www.w3.org/2000/svg" version="1.1" viewBox="0 0 304.23 305.6">
  <!-- Generator: Adobe Illustrator 30.2.1, SVG Export Plug-In . SVG Version: 2.1.1 Build 1)  -->
  <defs>
    <style>
      .st0 {
        fill: #1a1a18;
        font-family: Minion3-Semibold, 'Minion 3';
        font-size: 48px;
        font-weight: 600;
      }

      .st0, .st1 {
        isolation: isolate;
      }

      .st2 {
        fill: #fdc300;
      }

      .st2, .st3, .st4 {
        fill-rule: evenodd;
      }

      .st3 {
        fill: #fffffd;
      }

      .st4 {
        fill: #c40a19;
      }
    </style>
  </defs>
  <path class="st4" d="M141.67.38c-3.01.3-5.7.3-8.69.81-10.02,1.73-12.95,1.89-23.6,4.94-11.02,3.16-17.24,6.1-27.28,10.84-8.54,4.03-23.24,14.67-30.92,21.15-12.08,10.2-28.13,31.22-34.99,45.87-6.19,13.22-12.14,28.53-14.18,43.21-1.63,11.75-2.66,23.75-1.56,36,2.75,30.59,12.94,59.46,31.39,82.74,11.34,14.32,21.85,23.94,37.15,34.12.96.64,1.97,1.22,2.92,1.87,3.74,2.6,7.8,4.85,11.92,7.04,4.21,2.24,8.72,4.29,13.3,5.91,11.56,4.08,17.28,6.08,29.75,8.41,45.37,8.48,95.29-6.9,128.3-38.39l9.62-9.57c4.6-4.71,13.25-16.58,16.37-21.54,10.31-16.37,17.5-35.53,20.9-55.44,2.6-15.25,3.22-36.96-.2-52.66-2.48-11.39-2.02-11.67-5.79-22.58-.79-2.28-1.66-4.67-2.57-7-6.16-15.74-14.33-28.78-25.16-41.54-1.47-1.73-2.96-3.47-4.42-5.17-2.85-3.31-6.36-6.86-9.48-9.72-3.19-2.92-6.78-5.77-10.4-8.55-1.88-1.45-3.46-2.64-5.37-4-5.54-3.93-11.31-7.65-17.73-10.82-4.2-2.08-8.8-4.18-13.39-5.83-4.64-1.66-9.4-3.36-14.3-4.65-5.28-1.39-10.17-2.44-15.73-3.47-9.92-1.84-25.55-2.99-35.87-1.97h.01Z"/>
  <path class="st3" d="M144.2,16.4c-5.91.76-8.48.29-15.2,1.59-15.52,3.01-23.93,5.39-38.58,12.57-22.36,10.96-41.07,29.12-53.51,48.74-9.45,14.92-15.74,31.26-19.09,49.01-5.24,27.84-.47,60.45,12.53,85.74,3.74,7.27,8.24,14.59,13.17,20.91,7.35,9.43,15.74,18.66,25.35,25.77,3.64,2.69,6.34,4.71,10.01,7.02,6.87,4.33,14.4,8.36,22.53,11.55,28.31,11.11,57.73,12.85,87.43,4.71,17.53-4.8,31.2-12.27,45.46-22.71,3.18-2.33,6.42-5.28,9.32-7.71,1.34-1.13,2.75-2.64,4.24-4.16,4.44-4.52,8.22-8.61,12.05-13.62,2.44-3.2,4.88-6.66,7.05-9.98,9.55-14.62,15.88-31.38,19.12-49.04,1.52-8.26,2.98-22.98,1.9-31.93-.3-2.5-.37-5.31-.57-7.8-.47-5.74-2.7-16.08-4.14-21.39-4.2-15.5-12.53-32.92-22.57-45.53-5.1-6.41-6.33-7.8-11.79-13.65-8.65-9.26-22.56-19.61-34.25-25.5-3.69-1.86-7.94-3.9-11.68-5.34-11.24-4.36-21.79-7.15-33.92-8.56-6.34-.73-19.02-1.43-24.87-.68h.01Z"/>
  <path class="st2" d="M26.92,153.36c.02,8.31,1.11,20.18,3.27,28.27,2.35,8.84,4.1,14.16,7.95,22.73,3,6.66,6.95,13.63,11.01,19.45,12.99,18.64,28.26,31.66,49.69,42.25,9.94,4.91,23.91,9.23,35.4,10.64.66.08,2.91.32,3.44.48,1.45.44,10.94.66,13.38.67,30.05,0,57.92-9.71,79.98-27.96,13.74-11.36,26.75-27.6,33.9-43.62,3.17-7.1,6.28-14.52,8.3-22.61.51-2.06.91-4.29,1.43-6.31.53-2.07.63-4.34,1.16-6.52.45-1.83,1.27-11.94,1.28-14.37v-5.52c0-2.6-.34-4.89-.4-7.19l-1.62-13.86c-2.32-13.57-7.96-28.4-14.72-40.03-13.21-22.72-32.91-40.88-56.95-51.99-14.52-6.71-32.62-10.85-51.64-10.86-10.96,0-17.41,1.1-28.16,3.17-17.21,3.31-34.07,12.33-47.79,22.74l-8.58,7.26c-11.82,11.07-21.86,24.64-29.39,41.18-6.98,15.33-11,32.11-10.94,51.98v.02Z"/>
  <path class="st4" d="M157.07,103.61c-5.53,1.11-4.47,2.48-7.44,2.22-2.92-.26-6-.66-8.5.64-4.36,2.26-6.87,6.73-5.03,13.14,1.47,5.11,6.02,12.49,6.2,18.15.05,1.59-.64,3.39-.58,4.31.12,1.81,4.15,3.24,6.17,3.67,4.92,1.06,12.54.78,16.5-1.36,2.85-1.54,1.42-4.34,1.86-7.81.36-2.85.71-5.82,1.19-8.54.75-4.28,2.55-13.35,1.53-17.33-1.12-4.39-6.01-8.28-11.9-7.1h0Z"/>
  <path class="st2" d="M154.15,107.53c1.72,1.45,4.5,2.06,4.75,3.32-1.46-.1-21.94-10.79-21.85,4.61.04,5.67,6.94,15.26,7.28,22.3.08,1.63-.37,2.88-.29,4.15,6.08,1.72,9.7,3.15,16.18.93,1.13-.39,4.14-1.07,3.91-2.26-.06-.03-.16-.12-.19-.06s-.14-.04-.19-.05l-7.17.91c-1.9.12-6.56-.05-7.62-1.21.55-.45,1.23-.04,2.32,0,.89.03,1.92,0,2.65-.25l4.45-11.82c.17.19.48-.03.21,1.34l-2.32,10.34,2.64-.55,3.37-13.24c.37-.93-.2-.33.52-.71.63,1.5-1.31,10.62-1.62,12.96.95.1,1.68-.18,2.31-.45.23-3.7,1.03-7.73,1.77-11.23,1.23-5.86,5.4-15.74-1.09-20.13-2.4-1.63-5.24-1.49-7.96-.23-.31.14-.73.35-1.13.58-.21.12-.28.14-.46.27-.37.28-.28.19-.49.5l.02-.02Z"/>
  <path class="st4" d="M161.14,90.63l4.48.04c.56-2.83.46-17.59,1.05-18.53.34.19.52,2.86,1.03,4.66.42,1.47.75,3.03,1.2,4.55.45,1.53.82,2.89,1.25,4.47l.91,3.38c.04.14.13.4.19.54.27.58-.02.14.29.49l3.61.15c1.7-2.99,4.16-12.66,5.31-16.97.05-.18.13-.45.18-.56.4-.87.11-.3.45-.68l.55,18.42,4.84.11-.84-23.29-6.85-.11c-.59,1.06-3,9.21-3.69,11.48-.19.62-.38,1.24-.55,1.85-.21.78-.23,1.51-.69,2.14-.5-.63-.75-2.64-1.11-3.86-.41-1.39-.71-2.54-1.13-3.93-.58-1.89-1.61-6.23-2.33-7.67h-7.04l-1.11,23.35v-.03Z"/>
  <path class="st4" d="M85.72,89.71l.09-12.1-8.35-.05-.16,3.98,3.63.08.02,4.52c-3.99,2.05-11.45-.89-9.71-9.05.94-4.42,4.95-6.19,9.03-5.78,1.57.16,2.79.85,4.08.99l1.18-3.96c-2.93-.83-3.84-1.3-7.18-1.27-14.38.11-16.87,17.72-6.55,22.75,3.65,1.78,10.21,1.48,13.93-.11h0Z"/>
  <path class="st4" d="M211.41,75.22l.86,3.01c.91-.15,7.24-3.42,7.76,1.48-3.21.21-4.1.15-6.82,1.44-4.36,2.07-3.97,8.36.65,9.7,3,.87,4.44-.29,6.32-1.46.7.87-.07,1.32,1.89,1.33,1.07,0,2.22.07,3.26-.1,0-.92-.27-2.22-.29-3.48-.06-3.5.47-8.58-1.33-10.99-2.42-3.23-8.48-3.18-12.31-.93h.01Z"/>
  <path class="st4" d="M88.98,75.13l.84,3.11c.99-.19,7.57-3.46,7.78,1.48-13.28.63-11.02,9.79-5.74,11.18,3.45.9,4.45-1.18,6.17-1.55.28.83-.05.6.46,1.34h4.5c.02-1.12-.34-2.21-.36-3.54-.11-6.21,1.43-13.26-6.98-13.54-1.97-.07-5.44.6-6.65,1.54l-.02-.02Z"/>
  <path class="st4" d="M116.13,88.2c-.05,1.35-.42,2.36.84,2.49.9.1,2.63-.01,3.65.01l-.06-16.65-5.09-.05c-.03,2.65.02,5.26.02,7.85s-.32,4.66-2.84,4.79c-4.29.23-2.26-7.29-2.8-12.55l-4.94-.06c-.5,2.59-.19,12.29.88,14.21.93,1.67,2.61,2.82,4.96,2.78,3.32-.06,3.92-2.22,5.38-2.83h0Z"/>
  <path class="st4" d="M238.5,88.49l.07,2.15,4.84.04c-.7-5.25-.4-11.17-.34-16.64l-4.94-.03c0,2.64,0,5.24,0,7.84,0,2.2-.35,4.76-2.81,4.87-4.71.21-2.07-7.47-2.97-12.67l-4.9-.03c-.52,2.91-.25,12.14.95,14.28.84,1.5,2.49,2.84,4.99,2.77,3.1-.1,4.11-2.37,5.11-2.57h0Z"/>
  <path class="st4" d="M131.45,70.31l-.04,3.65-2.22.12-.07,3.33,2.26.1c.38,5.4-1.47,11.78,3.54,13.29,1.37.41,3.87.43,5.08-.3l.02-3.82c-3.17.08-3.62.55-3.62-4.1,0-1.55-.07-3.49.08-5l3.51-.07.06-3.48h-3.65l.05-4.91-5,1.19Z"/>
  <path class="st4" d="M203.69,90.63l4.85.03.05-23.97-4.82-.04c-.33.94-.4,22.57-.08,23.98Z"/>
  <polygon class="st4" points="196.29 90.65 201.3 90.67 201.3 66.65 196.34 66.66 196.29 90.65"/>
  <polygon class="st4" points="123.21 90.63 128.16 90.68 128.24 66.69 123.22 66.66 123.21 90.63"/>
  <polygon class="st4" points="188.87 90.55 193.86 90.66 193.87 74.12 188.94 74.05 188.87 90.55"/>
  <path class="st4" d="M153.48,81.67c.29.69,1.92,2.01.73,6.2-1.06,3.72-7.11,5.03-7.58-1.69-.19-2.68-.19-4.79,1.12-6.77-6.12.38-7.94,10.37,1.24,11.61,10.48,1.42,11.81-9.36,4.48-9.35h.01Z"/>
  <path class="st4" d="M149.25,78.85c-1.08-2.05-1.4-2.29-1.13-5.41.2-2.32,1.46-3.65,3.71-2.67.79,1.91-.57,2.86,0,4.28.47,1.16,2.71,1.14,3.38-.09,1.53-2.83-2.31-4.73-4.63-4.75-8.63-.06-6.89,9.27-1.33,8.64Z"/>
  <path class="st4" d="M190.34,67.06c-1.09.44-2.38,1.19-1.57,3.04.46,1.07,1.86,1.98,3.5,1.4,2.96-1.06,1.37-5.78-1.92-4.44h0Z"/>
  <path class="st2" d="M97.65,82.94c-1.38.1-2.95.16-3.94.83-2.58,1.74.19,5.51,3.12,3.11,1.08-.89,1.02-2.27.83-3.94h-.01Z"/>
  <path class="st2" d="M220.09,83.12c-2.8-.56-6.45,1.59-4.54,3.84.86,1.01,2.75.67,3.63-.12,1.02-.92,1.03-2.1.91-3.72h0Z"/>
  <path class="st4" d="M78.06,169.38h-7.2v.82c2.52.22,2.64.41,2.64,2.09v2.28c0,.72-.19,1.1-.55,1.32-.31.22-.86.29-1.34.29-3.94,0-5.71-3.77-5.71-7.39,0-4.32,2.5-6.91,5.38-6.91,2.26,0,4.06,1.15,4.66,3.82l.89-.17c-.19-1.9-.31-3.14-.38-3.98-.86-.19-2.74-.67-4.68-.67-5.06,0-9.5,2.88-9.5,8.35,0,4.8,3.58,7.97,9.14,7.97,1.94,0,4.03-.53,5.47-.89-.12-.62-.14-1.39-.14-2.26v-1.9c0-1.61.14-1.7,1.34-1.94v-.82h-.02Z"/>
  <path class="st4" d="M86.21,165.92c-2.66,0-5.71,1.97-5.71,5.83,0,2.62,1.85,5.35,5.62,5.35,2.81,0,5.57-1.92,5.57-5.78,0-2.88-2.11-5.4-5.47-5.4h-.01ZM85.9,166.86c1.51,0,2.35,1.85,2.35,5.18,0,3.53-.96,4.13-1.87,4.13-1.51,0-2.45-2.33-2.45-5.28,0-2.76.96-4.03,1.97-4.03Z"/>
  <path class="st4" d="M105.97,175.47l-.53-.05c-.86-.1-1.01-.31-1.01-1.58v-7.8c-1.58.24-3.1.36-4.58.43v.7c1.46.26,1.54.36,1.54,1.58v5.83c-.55.53-1.08.67-1.73.67-.84,0-1.66-.55-1.66-2.11v-3.48c0-1.39.02-2.62.07-3.62-1.51.22-2.98.36-4.44.43v.7c1.22.31,1.32.41,1.32,1.56v4.97c0,2.11,1.13,3.41,3.14,3.41.74,0,1.39-.26,2.09-.72.53-.31.77-.55,1.2-.89v1.44l.19.17c1.54-.36,2.98-.67,4.39-.86v-.77h.01Z"/>
  <path class="st4" d="M112.35,168.44v-2.54c-1.49.46-2.9.72-4.34.91v.67c1.1.26,1.3.36,1.3,1.58v5.23c0,1.49-.24,1.61-1.54,1.75v.77h6.58v-.77c-1.85-.17-1.99-.26-1.99-1.75v-4.46c.41-.94.89-1.25,1.34-1.25.41,0,.7.17,1.1.5.17.14.41.22.74.1.65-.24,1.18-.91,1.18-1.78,0-.82-.65-1.49-1.61-1.49-.89,0-1.82,1.03-2.69,2.52h-.07,0Z"/>
  <path class="st4" d="M137.32,176.82v-.77c-1.27-.19-1.37-.26-1.37-1.63v-4.63c0-2.45-1.13-3.86-3.22-3.86-.72,0-1.37.31-1.9.67-.58.41-1.15.77-1.73,1.22-.43-1.1-1.42-1.9-2.74-1.9-.7,0-1.34.29-2.09.77-.53.31-.98.65-1.51,1.03v-1.85c-1.49.41-3.1.74-4.22.91v.7c1.1.17,1.22.41,1.22,1.78v5.04c0,1.51-.14,1.58-1.51,1.75v.77h5.64v-.77c-.91-.14-1.08-.26-1.08-1.63v-5.86c.67-.5,1.27-.77,1.85-.77.89,0,1.66.53,1.66,2.26v4.37c0,1.42-.1,1.46-1.22,1.63v.77h5.54v-.77c-1.08-.14-1.25-.26-1.25-1.63v-4.85c0-.36-.05-.7-.07-.96.79-.65,1.39-.79,1.87-.79.77,0,1.7.38,1.7,2.35v4.13c0,1.51-.19,1.61-1.25,1.75v.77h5.68Z"/>
  <path class="st4" d="M149.72,175.74l-.24-.77c-.26.1-.53.19-.82.19-.38,0-.77-.31-.77-1.42v-3.96c0-1.34-.22-2.38-1.25-3.17-.65-.48-1.37-.7-2.35-.7-1.37.24-3.07,1.08-3.98,1.7-.55.41-.84.72-.84,1.15,0,.62.86,1.2,1.49,1.2.5,0,.84-.19,1.01-.82.19-.74.41-1.32.7-1.66.22-.29.48-.43.79-.43.89,0,1.46.84,1.46,2.35v.72c-.55.48-2.4,1.06-3.82,1.58-1.25.46-1.82,1.06-1.82,2.3,0,1.49,1.2,3.07,3.24,3.07.46,0,1.58-.79,2.5-1.39.12.29.29.6.62.89.31.29.82.5,1.46.5l2.62-1.37h0v.04ZM144.92,174.92c-.41.29-.67.38-1.01.38-.55,0-1.44-.5-1.44-1.85,0-.82.38-1.25,1.13-1.63.48-.26.89-.53,1.32-.74v3.84h0Z"/>
  <path class="st4" d="M163.58,176.82v-.77c-1.25-.19-1.39-.24-1.39-1.75v-4.54c0-2.4-1.2-3.84-3.14-3.84-.7,0-1.15.22-1.87.67-.53.34-1.01.72-1.49,1.06v-1.78c-1.42.41-2.98.74-4.34.91v.7c1.18.22,1.3.31,1.3,1.75v4.97c0,1.61-.12,1.63-1.61,1.85v.77h5.78v-.77c-.98-.17-1.13-.24-1.13-1.73v-5.81c.62-.48,1.18-.74,1.78-.74.86,0,1.66.53,1.66,2.26v4.08c0,1.7-.12,1.78-1.13,1.94v.77h5.59,0Z"/>
  <path class="st4" d="M177.75,175.42l-.53-.05c-1.01-.12-1.13-.22-1.13-1.58v-13.85c-1.22.36-3.14.67-4.68.86v.74c1.46.17,1.61.29,1.61,1.58v2.9c-.53-.07-.79-.12-.98-.12-3.74,0-6.58,2.66-6.58,5.93,0,3.58,2.86,5.26,4.9,5.26.29,0,.62-.07,1.22-.43l1.44-.94v1.39c1.9-.55,4.15-.84,4.73-.94v-.77h0v.02ZM173.02,174.9c-.53.34-.89.38-1.32.38-1.1,0-2.81-1.13-2.83-4.08,0-3.65,1.85-4.27,2.42-4.27.7,0,1.34.41,1.73,1.25v6.72h0Z"/>
  <path class="st4" d="M199.45,165.27c-.12-1.54-.24-3.65-.26-4.66h-.58c-.41.46-.74.6-1.39.6h-9.65c-.67,0-.98-.05-1.37-.6h-.58c-.05,1.22-.19,2.98-.29,4.73h.86c.31-1.2.62-2.02,1.01-2.42.36-.38.79-.65,2.76-.65h.82v11.35c0,2.04-.24,2.18-2.26,2.35v.84h7.82v-.84c-2.11-.17-2.35-.31-2.35-2.35v-11.35h1.1c1.39,0,2.02.14,2.42.58.43.43.77,1.22,1.06,2.47l.86-.05h.02Z"/>
  <path class="st4" d="M209.83,175.74l-.24-.77c-.26.1-.53.19-.82.19-.38,0-.77-.31-.77-1.42v-3.96c0-1.34-.22-2.38-1.25-3.17-.65-.48-1.37-.7-2.35-.7-1.37.24-3.07,1.08-3.98,1.7-.55.41-.84.72-.84,1.15,0,.62.86,1.2,1.49,1.2.5,0,.84-.19,1.01-.82.19-.74.41-1.32.7-1.66.22-.29.48-.43.79-.43.89,0,1.46.84,1.46,2.35v.72c-.55.48-2.4,1.06-3.82,1.58-1.25.46-1.82,1.06-1.82,2.3,0,1.49,1.2,3.07,3.24,3.07.46,0,1.58-.79,2.5-1.39.12.29.29.6.62.89.31.29.82.5,1.46.5l2.62-1.37h0v.04ZM205.03,174.92c-.41.29-.67.38-1.01.38-.55,0-1.44-.5-1.44-1.85,0-.82.38-1.25,1.13-1.63.48-.26.89-.53,1.32-.74v3.84h0Z"/>
  <path class="st4" d="M215.17,166.81v-6.86c-1.37.38-3.31.72-4.54.86v.72c1.34.12,1.46.31,1.46,1.7v13.01c1.66.62,2.88.86,4.22.86,3.5,0,6.24-2.62,6.24-6.12,0-2.69-2.06-5.06-4.97-5.06-.48,0-.86.14-1.54.46l-.89.43h.02ZM215.17,167.65c.36-.1.6-.17.98-.17,1.54,0,3.07,1.2,3.07,4.25s-1.18,4.44-2.47,4.42c-.77-.02-1.32-.74-1.46-1.13-.07-.19-.12-.46-.12-.79v-6.58Z"/>
  <path class="st4" d="M230.45,176.82v-.77c-1.46-.17-1.61-.26-1.61-1.87v-14.23c-1.34.38-3.12.7-4.49.86v.7c1.32.17,1.44.24,1.44,1.68v10.99c0,1.54-.14,1.66-1.56,1.87v.77h6.22Z"/>
  <path class="st4" d="M241.17,173.86c-.84.72-1.73,1.03-2.66,1.03-1.7,0-3.12-1.3-3.24-3.87,2.35-.1,5.28-.34,5.71-.38.55-.07.7-.39.7-.87.02-1.96-1.68-3.86-3.89-3.86-1.32,0-2.64.65-3.7,1.7-1.01.98-1.78,2.52-1.78,4.34,0,2.76,1.78,5.14,4.97,5.14.98,0,2.86-.48,4.32-2.66l-.43-.58h0ZM237.28,166.88c.94,0,1.46,1.24,1.46,2.46-.02.41-.14.46-.5.48-.98.02-1.87.05-2.86.07.14-1.92.98-3.02,1.9-3.02h0Z"/>
  <path class="st4" d="M106.01,191.84c-.12-1.54-.24-3.65-.26-4.66h-.58c-.41.46-.74.6-1.39.6h-9.65c-.67,0-.98-.05-1.37-.6h-.58c-.05,1.22-.19,2.98-.29,4.73h.86c.31-1.2.62-2.02,1.01-2.42.36-.38.79-.65,2.76-.65h.82v11.35c0,2.04-.24,2.18-2.26,2.35v.84h7.82v-.84c-2.11-.17-2.35-.31-2.35-2.35v-11.35h1.1c1.39,0,2.02.14,2.42.58.43.43.77,1.22,1.06,2.47l.86-.05h.02Z"/>
  <path class="st4" d="M110.75,195.01v-2.54c-1.49.46-2.9.72-4.34.91v.67c1.1.26,1.3.36,1.3,1.58v5.23c0,1.49-.24,1.61-1.54,1.75v.77h6.58v-.77c-1.85-.17-1.99-.26-1.99-1.75v-4.46c.41-.94.89-1.25,1.34-1.25.41,0,.7.17,1.1.5.17.14.41.22.74.1.65-.24,1.18-.91,1.18-1.78,0-.82-.65-1.49-1.61-1.49-.89,0-1.82,1.03-2.69,2.52h-.07Z"/>
  <path class="st4" d="M127.3,202.31l-.24-.77c-.26.1-.53.19-.82.19-.38,0-.77-.31-.77-1.42v-3.96c0-1.34-.22-2.38-1.25-3.17-.65-.48-1.37-.7-2.35-.7-1.37.24-3.07,1.08-3.98,1.7-.55.41-.84.72-.84,1.15,0,.62.86,1.2,1.49,1.2.5,0,.84-.19,1.01-.82.19-.74.41-1.32.7-1.66.22-.29.48-.43.79-.43.89,0,1.46.84,1.46,2.35v.72c-.55.48-2.4,1.06-3.82,1.58-1.25.46-1.82,1.06-1.82,2.3,0,1.49,1.2,3.07,3.24,3.07.46,0,1.58-.79,2.5-1.39.12.29.29.6.62.89.31.29.82.5,1.46.5l2.62-1.37h0v.04ZM122.5,201.49c-.41.29-.67.38-1.01.38-.55,0-1.44-.5-1.44-1.85,0-.82.38-1.25,1.13-1.63.48-.26.89-.53,1.32-.74v3.84h0Z"/>
  <path class="st4" d="M141.09,202l-.53-.05c-1.01-.12-1.13-.22-1.13-1.58v-13.85c-1.22.36-3.14.67-4.68.86v.74c1.46.17,1.61.29,1.61,1.58v2.9c-.53-.07-.79-.12-.98-.12-3.74,0-6.58,2.66-6.58,5.93,0,3.58,2.86,5.26,4.9,5.26.29,0,.62-.07,1.22-.43l1.44-.94v1.39c1.9-.55,4.15-.84,4.73-.94v-.77h0v.02ZM136.36,201.47c-.53.34-.89.38-1.32.38-1.1,0-2.81-1.13-2.83-4.08,0-3.65,1.85-4.27,2.42-4.27.7,0,1.34.41,1.73,1.25v6.72h0Z"/>
  <path class="st4" d="M145.57,190.98c.98,0,1.73-.77,1.73-1.68,0-.96-.74-1.68-1.7-1.68s-1.7.72-1.7,1.68.79,1.68,1.68,1.68h0ZM148.85,203.39v-.77c-1.44-.19-1.56-.31-1.56-1.97v-8.16c-1.34.38-2.93.7-4.37.86v.7c1.15.19,1.32.26,1.32,1.85v4.75c0,1.7-.14,1.8-1.54,1.97v.77h6.15Z"/>
  <path class="st4" d="M157.65,202.5l-.24-.84c-.41.19-.79.29-1.2.29-.5,0-1.37-.22-1.37-2.09v-5.93h2.21c.38-.19.43-.89.14-1.15h-2.35v-3.48l-.34-.14-2.71,1.87v1.75h-.96l-.67.86.12.29h1.51v6.72c0,2.16,1.08,3.02,2.93,3.02.17,0,.55-.1.98-.26l1.94-.91h.01Z"/>
  <path class="st4" d="M162.1,190.98c.98,0,1.73-.77,1.73-1.68,0-.96-.74-1.68-1.7-1.68s-1.7.72-1.7,1.68.79,1.68,1.68,1.68h0ZM165.39,203.39v-.77c-1.44-.19-1.56-.31-1.56-1.97v-8.16c-1.34.38-2.93.7-4.37.86v.7c1.15.19,1.32.26,1.32,1.85v4.75c0,1.7-.14,1.8-1.54,1.97v.77h6.15Z"/>
  <path class="st4" d="M172.99,192.49c-2.66,0-5.71,1.97-5.71,5.83,0,2.62,1.85,5.35,5.62,5.35,2.81,0,5.57-1.92,5.57-5.78,0-2.88-2.11-5.4-5.47-5.4h0ZM172.68,193.43c1.51,0,2.35,1.85,2.35,5.18,0,3.53-.96,4.13-1.87,4.13-1.51,0-2.45-2.33-2.45-5.28,0-2.76.96-4.03,1.97-4.03h0Z"/>
  <path class="st4" d="M192.88,203.39v-.77c-1.25-.19-1.39-.24-1.39-1.75v-4.54c0-2.4-1.2-3.84-3.14-3.84-.7,0-1.15.22-1.87.67-.53.34-1.01.72-1.49,1.06v-1.78c-1.42.41-2.98.74-4.34.91v.7c1.18.22,1.3.31,1.3,1.75v4.97c0,1.61-.12,1.63-1.61,1.85v.77h5.78v-.77c-.98-.17-1.13-.24-1.13-1.73v-5.81c.62-.48,1.18-.74,1.78-.74.86,0,1.66.53,1.66,2.26v4.08c0,1.7-.12,1.78-1.13,1.94v.77h5.59,0Z"/>
  <path class="st4" d="M205.22,202.31l-.24-.77c-.26.1-.53.19-.82.19-.38,0-.77-.31-.77-1.42v-3.96c0-1.34-.22-2.38-1.25-3.17-.65-.48-1.37-.7-2.35-.7-1.37.24-3.07,1.08-3.98,1.7-.55.41-.84.72-.84,1.15,0,.62.86,1.2,1.49,1.2.5,0,.84-.19,1.01-.82.19-.74.41-1.32.7-1.66.22-.29.48-.43.79-.43.89,0,1.46.84,1.46,2.35v.72c-.55.48-2.4,1.06-3.82,1.58-1.25.46-1.82,1.06-1.82,2.3,0,1.49,1.2,3.07,3.24,3.07.46,0,1.58-.79,2.5-1.39.12.29.29.6.62.89.31.29.82.5,1.46.5l2.62-1.37h0v.04ZM200.42,201.49c-.41.29-.67.38-1.01.38-.55,0-1.44-.5-1.44-1.85,0-.82.38-1.25,1.13-1.63.48-.26.89-.53,1.32-.74v3.84h0Z"/>
  <path class="st4" d="M212.61,203.39v-.77c-1.46-.17-1.61-.26-1.61-1.87v-14.23c-1.34.38-3.12.7-4.49.86v.7c1.32.17,1.44.24,1.44,1.68v10.99c0,1.54-.14,1.66-1.56,1.87v.77h6.22Z"/>
  <g class="st1">
    <text class="st0" transform="translate(104.21 251.2)"><tspan x="0" y="0">2024</tspan></text>
  </g>
</svg>