<?xml version="1.0" encoding="UTF-8"?>
<svg id="Layer_1" data-name="Layer 1" xmlns="http://www.w3.org/2000/svg" viewBox="0 0 401.72 403.53">
  <defs>
    <style>
      .cls-1 {
        fill: #fcc300;
        fill-rule: evenodd;
      }

      .cls-2 {
        fill: #1d1d1b;
      }
    </style>
  </defs>
  <path class="cls-1" d="M187.06.51c-3.98.4-7.53.39-11.47,1.07-13.23,2.28-17.1,2.49-31.17,6.53-14.56,4.17-22.76,8.06-36.02,14.31-11.27,5.32-30.69,19.37-40.83,27.93-15.95,13.47-37.15,41.23-46.2,60.56-8.17,17.45-16.04,37.67-18.72,57.05-2.15,15.52-3.51,31.36-2.06,47.54,3.63,40.39,17.09,78.52,41.44,109.26,14.98,18.91,28.86,31.62,49.05,45.05,1.26.84,2.6,1.61,3.85,2.47,4.94,3.43,10.3,6.4,15.74,9.3,5.56,2.96,11.52,5.67,17.56,7.8,15.26,5.38,22.81,8.03,39.28,11.1,59.91,11.19,125.83-9.1,169.41-50.7l12.7-12.64c6.08-6.22,17.49-21.89,21.62-28.45,13.61-21.62,23.11-46.92,27.59-73.2,3.43-20.13,4.25-48.8-.26-69.54-3.27-15.04-2.67-15.41-7.64-29.82-1.04-3.02-2.19-6.16-3.39-9.24-8.13-20.79-18.92-38-33.22-54.85-1.94-2.29-3.91-4.58-5.84-6.82-3.76-4.37-8.39-9.05-12.52-12.83-4.21-3.86-8.96-7.62-13.73-11.29-2.48-1.91-4.56-3.49-7.09-5.28-7.31-5.19-14.94-10.1-23.41-14.29-5.55-2.75-11.61-5.53-17.68-7.69-6.13-2.19-12.41-4.44-18.88-6.15-6.97-1.84-13.43-3.22-20.77-4.58-13.1-2.42-33.73-3.95-47.37-2.6Z"/>
  <path d="M88.36,309.55h8.78c3.99,0,6.56,2.48,6.56,5.5.09,2.13-1.06,4.08-3.01,4.88,2.39.89,4.17,2.57,4.17,5.68,0,4.26-3.1,7.09-8.07,7.09h-8.42v-23.14ZM96.61,318.41c1.24,0,2.31-1.06,2.31-2.31s-1.06-2.31-2.31-2.31h-3.28v4.61h3.28ZM96.52,328.26c2.13,0,3.46-.89,3.46-2.93s-1.24-2.93-3.46-2.93h-3.19v5.85h3.19Z"/>
  <path d="M123.21,325.69h-12.15c.09,2.13,1.86,3.72,3.9,3.72,1.68.18,3.19-.89,3.72-2.48h4.43c-.8,3.99-3.72,6.3-8.16,6.3-5.14,0-8.51-3.81-8.51-8.69-.09-4.61,3.55-8.51,8.16-8.69h.27c5.14,0,8.25,3.1,8.25,9.04l.09.8ZM111.24,322.23h7.63c-.44-1.68-2.13-2.84-3.9-2.66-1.68,0-3.19,1.06-3.72,2.66Z"/>
  <path d="M124.72,327.46h4.7c-.09.98.71,1.86,1.68,1.86h.18c1.06,0,1.77-.53,1.77-1.33s-.71-1.42-2.22-1.86l-2.13-.62c-2.13-.44-3.64-2.39-3.64-4.52,0-3.01,2.75-4.97,6.12-4.97,3.81,0,5.94,2.22,5.94,5.23h-4.35c0-.89-.71-1.6-1.6-1.6h-.09c-.89,0-1.6.53-1.6,1.15s.62,1.15,1.86,1.51l2.39.71c2.22.62,3.72,2.13,3.72,4.52,0,3.1-2.39,5.76-6.3,5.76-3.55-.09-6.47-2.31-6.47-5.85Z"/>
  <path d="M145.55,320.28v6.3c-.09.98.53,1.86,1.51,1.95h2.31v4.26h-3.37c-3.01,0-5.14-2.04-5.14-5.41v-7.09h-2.39v-3.9h2.39v-4.17h4.61v4.17h3.81v3.81l-3.72.09Z"/>
  <path d="M158.15,324.62c-.09-4.88,3.72-8.96,8.69-9.04,4.88-.09,8.96,3.72,9.04,8.69s-3.72,8.96-8.69,9.04h-.18c-4.7.27-8.6-3.37-8.87-8.07v-.62ZM171.27,324.62c-.09-2.31-2.04-4.17-4.35-4.08-2.31.09-4.17,2.04-4.08,4.35.09,2.31,1.95,4.08,4.26,4.08,2.31.09,4.17-1.68,4.26-3.99-.09-.18-.09-.27-.09-.35Z"/>
  <path d="M183.68,315.84v.53h3.81v3.81h-3.81v12.5h-4.61v-12.5h-2.39v-3.81h2.39v-1.06c0-3.72,2.48-5.76,5.5-5.76h3.01v4.26h-1.86c-.98-.09-1.86.53-1.95,1.51-.18.18-.18.35-.09.53Z"/>
  <path d="M202.57,320.28v6.3c-.09.98.53,1.86,1.51,1.95h2.31v4.26h-3.37c-3.01,0-5.14-2.04-5.14-5.41v-7.09h-2.31v-3.9h2.31v-4.17h4.61v4.17h3.81v3.81l-3.72.09Z"/>
  <path d="M208.96,309.55h4.61v9.04c1.15-1.77,3.1-2.75,5.23-2.66,3.28,0,5.5,2.31,5.5,6.03v10.82h-4.61v-9.49c.09-1.68-1.24-3.1-2.93-3.19s-3.1,1.24-3.19,2.93v9.84h-4.61v-23.32Z"/>
  <path d="M243.45,325.69h-12.15c.09,2.13,1.86,3.72,3.9,3.72,1.68.18,3.19-.89,3.64-2.48h4.43c-.8,3.99-3.72,6.3-8.16,6.3-5.14,0-8.51-3.81-8.51-8.69-.09-4.61,3.55-8.51,8.16-8.69h.27c5.14,0,8.34,3.1,8.34,9.04l.09.8ZM231.48,322.23h7.63c-.44-1.68-2.13-2.84-3.9-2.66-1.68,0-3.19,1.06-3.72,2.66Z"/>
  <path d="M252.94,309.55h8.69c3.99,0,6.56,2.48,6.56,5.5.09,2.13-1.15,4.08-3.01,4.88,2.39.89,4.17,2.57,4.17,5.68,0,4.26-3.1,7.09-8.07,7.09h-8.34v-23.14h0ZM261.1,318.41c1.24,0,2.31-1.06,2.31-2.31s-1.06-2.31-2.31-2.31h-3.28v4.61h3.28ZM261.01,328.26c2.13,0,3.46-.89,3.46-2.93s-1.24-2.93-3.46-2.93h-3.19v5.85h3.19Z"/>
  <path d="M287.7,325.69h-12.15c.09,2.13,1.86,3.72,3.9,3.72,1.68.18,3.19-.89,3.64-2.48h4.43c-.8,3.99-3.72,6.3-8.16,6.3-5.14,0-8.51-3.81-8.51-8.69-.09-4.61,3.55-8.51,8.16-8.69h.27c5.14,0,8.34,3.1,8.34,9.04l.09.8ZM275.82,322.23h7.54c-.44-1.68-2.13-2.84-3.9-2.66-1.68,0-3.1,1.06-3.64,2.66Z"/>
  <path d="M289.3,327.46h4.7c-.09.98.71,1.86,1.68,1.86h.18c1.06,0,1.77-.53,1.77-1.33s-.71-1.42-2.22-1.86l-2.13-.62c-2.13-.44-3.64-2.39-3.64-4.52,0-3.01,2.75-4.97,6.12-4.97,3.81,0,5.94,2.22,5.94,5.23h-4.35c0-.89-.71-1.6-1.6-1.6h-.09c-.89,0-1.6.53-1.6,1.15s.62,1.15,1.86,1.51l2.39.71c2.22.62,3.72,2.13,3.72,4.52,0,3.1-2.39,5.76-6.3,5.76-3.64-.09-6.47-2.31-6.47-5.85Z"/>
  <path d="M310.05,320.28v6.3c-.09.98.53,1.86,1.51,1.95h2.31v4.26h-3.37c-3.01,0-5.14-2.04-5.14-5.41v-7.09h-2.31v-3.9h2.31v-4.17h4.61v4.17h3.81v3.81l-3.72.09Z"/>
  <path d="M200.89,132.55c-33.87,0-61.27,27.49-61.27,61.27s27.49,61.27,61.27,61.27,61.27-27.49,61.27-61.27-27.4-61.27-61.27-61.27h0ZM200.89,248.36c-30.06,0-54.45-24.39-54.45-54.45s24.39-54.45,54.45-54.45,54.45,24.39,54.45,54.45h0c0,30.06-24.39,54.45-54.45,54.45ZM187.23,198.08c0,4.17-3.37,7.54-7.54,7.54s-7.54-3.37-7.54-7.54,3.37-7.54,7.54-7.54,7.54,3.28,7.54,7.54q0-.09,0,0h0ZM229.53,198.08c0,4.17-3.37,7.54-7.54,7.54s-7.54-3.37-7.54-7.54,3.37-7.54,7.54-7.54h0c4.17,0,7.54,3.37,7.54,7.54q0-.09,0,0h0ZM236.36,182.39l6.92-7.54h-15.34c-16.32-11.08-37.69-11.08-53.91,0h-15.43l6.92,7.54c-8.6,7.89-9.13,21.28-1.24,29.88s21.28,9.13,29.88,1.24h0l6.74,7.36,6.74-7.36c8.6,7.89,21.99,7.36,29.88-1.24,7.98-8.51,7.45-21.9-1.15-29.88ZM179.78,212.36c-7.89,0-14.28-6.38-14.28-14.28s6.38-14.28,14.28-14.28,14.28,6.38,14.28,14.28c.09,7.89-6.38,14.28-14.28,14.28h0ZM200.89,197.64c0-9.4-6.83-17.47-15.87-20.93,10.2-4.26,21.64-4.26,31.75,0-9.04,3.46-15.87,11.53-15.87,20.93ZM222.08,212.36c-7.89,0-14.28-6.38-14.28-14.28s6.38-14.28,14.28-14.28,14.28,6.38,14.28,14.28-6.38,14.28-14.28,14.28h0Z"/>
  <path d="M166.75,261.66s-7.45-5.68-20.84-7.27c-8.07-.8-16.23,1.06-23.14,5.5,0,0,8.87,3.64,22.52,5.05,13.66,1.42,21.46-3.28,21.46-3.28Z"/>
  <path d="M146,249.96s-6.65-6.92-19.15-11.62c-7.89-2.84-16.32-3.46-24.47-1.77,0,0,7.63,7.27,20.93,12.33s22.7,1.06,22.7,1.06Z"/>
  <path d="M126.13,233.64s-3.9-9.49-14.28-19.07c-6.56-5.85-14.63-9.75-23.32-11.26,0,0,4.7,10.29,15.7,20.48,11,10.2,21.9,9.84,21.9,9.84Z"/>
  <path d="M122.23,215.37s-1.33-10.29-8.78-22.17c-4.79-7.36-11.53-13.21-19.51-16.85,0,0,1.86,11.17,9.84,23.85,7.98,12.68,18.44,15.16,18.44,15.16Z"/>
  <path d="M122.68,190.9s-.35-10.46-6.65-23.23c-3.99-7.8-10.11-14.37-17.65-18.8,1.06,8.69,3.55,17.2,7.54,25.09,6.74,13.48,16.76,16.94,16.76,16.94Z"/>
  <path d="M152.38,242.95s-3.1-7.8-11.53-15.7c-5.32-4.79-11.88-8.07-18.89-9.4,3.19,6.3,7.45,12.06,12.68,16.85,8.87,8.42,17.73,8.25,17.73,8.25Z"/>
  <path d="M173.58,254.57c-3.55-3.1-7.71-5.59-12.15-7.27-4.88-1.86-10.2-2.39-15.34-1.6,3.99,3.28,8.51,5.85,13.3,7.71,8.34,3.28,14.19,1.15,14.19,1.15Z"/>
  <path d="M194.06,258.74c-3.55-1.24-7.36-1.77-11.17-1.6-4.17.18-8.16,1.51-11.62,3.9,3.9,1.24,8.07,1.77,12.15,1.6,7.09-.27,10.64-3.9,10.64-3.9Z"/>
  <path d="M143.16,224.15s-1.42-8.34-8.07-17.73c-4.17-5.85-9.93-10.29-16.58-13.04,1.77,6.83,4.88,13.3,8.96,19.07,7.01,10.11,15.7,11.71,15.7,11.71Z"/>
  <path d="M134.91,198.79s1.6-8.42-1.06-19.69c-1.77-6.92-5.41-13.3-10.64-18.18-.71,7.18-.27,14.37,1.51,21.37,2.75,11.97,10.2,16.49,10.2,16.49Z"/>
  <path d="M235.03,261.66s7.45-5.68,20.84-7.27c8.07-.8,16.32,1.06,23.14,5.5,0,0-8.96,3.64-22.52,5.05-13.57,1.42-21.46-3.28-21.46-3.28Z"/>
  <path d="M255.87,249.96s6.65-6.92,19.15-11.62c7.89-2.84,16.32-3.46,24.47-1.77,0,0-7.63,7.27-20.93,12.33s-22.7,1.06-22.7,1.06Z"/>
  <path d="M275.73,233.64s3.9-9.49,14.28-19.07c6.56-5.85,14.63-9.75,23.32-11.26,0,0-4.7,10.29-15.7,20.48-11,10.2-21.9,9.84-21.9,9.84Z"/>
  <path d="M279.63,215.37s1.33-10.29,8.78-22.17c4.79-7.36,11.53-13.21,19.51-16.85,0,0-1.86,11.17-9.84,23.85s-18.44,15.16-18.44,15.16Z"/>
  <path d="M279.1,190.9s.35-10.46,6.65-23.23c3.99-7.8,10.11-14.37,17.65-18.8,0,0-.89,11.44-7.54,25.09s-16.76,16.94-16.76,16.94Z"/>
  <path d="M249.39,242.95s3.1-7.8,11.53-15.7c5.32-4.79,11.88-8.07,18.98-9.4-3.19,6.3-7.45,12.06-12.68,16.85-8.96,8.42-17.82,8.25-17.82,8.25Z"/>
  <path d="M228.29,254.57c3.55-3.1,7.71-5.59,12.24-7.27,4.88-1.86,10.2-2.39,15.34-1.6-3.99,3.28-8.51,5.85-13.3,7.71-8.51,3.28-14.28,1.15-14.28,1.15Z"/>
  <path d="M207.71,258.74c3.55-1.24,7.36-1.77,11.17-1.6,4.17.18,8.16,1.51,11.62,3.9-3.9,1.24-7.98,1.77-12.15,1.6-7.09-.27-10.64-3.9-10.64-3.9Z"/>
  <path d="M258.7,224.15s1.42-8.34,8.07-17.73c4.17-5.85,9.93-10.29,16.58-13.04-1.77,6.83-4.88,13.3-8.96,19.07-7.09,10.11-15.7,11.71-15.7,11.71Z"/>
  <path d="M266.95,198.79s-1.6-8.42,1.06-19.69c1.77-6.92,5.41-13.3,10.64-18.18.8,7.18.27,14.37-1.51,21.37-2.84,11.97-10.2,16.49-10.2,16.49Z"/>
  <circle cx="200.89" cy="261.75" r="3.37"/>
  <path d="M134.91,64.54h-7.98v23.5h-6.21v-23.5h-7.98v-5.68h22.08l.09,5.68Z"/>
  <path d="M145.82,67.46v5.5h-3.1c-2.22,0-3.37,1.06-3.37,3.37v11.71h-5.85v-20.57h5.41v3.81c.18-2.22,2.04-3.9,4.26-3.81h2.66Z"/>
  <path d="M146.44,77.75c0-6.03,4.26-10.91,10.2-10.91,2.39-.09,4.7.71,6.47,2.31v-1.77h5.41v20.57h-5.41v-2.48c-1.33,1.77-3.28,3.1-6.65,3.1-5.76.09-10.02-4.79-10.02-10.82ZM163.11,77.75c0-3.01-2.48-5.41-5.41-5.41s-5.41,2.48-5.41,5.41,2.48,5.41,5.41,5.41c2.93.09,5.32-2.22,5.41-5.14v-.27Z"/>
  <path d="M170.83,67.46h6.21l3.1,10.91c.35,1.24.53,2.04.8,3.01.18-.98.44-1.77.8-3.01l3.19-10.91h6.21l-6.83,20.57h-6.65l-6.83-20.57Z"/>
  <path d="M211.97,79.17h-15.25c.09,2.66,2.31,4.7,4.88,4.7,2.39,0,4.08-1.24,4.61-3.1h5.59c-.98,5.05-4.7,7.98-10.2,7.98-6.47,0-10.73-4.79-10.73-10.91-.18-5.85,4.43-10.73,10.29-10.91h.35c6.47,0,10.46,3.99,10.46,11.35v.89ZM196.99,74.74h9.58c-.53-2.04-2.22-3.37-4.88-3.37-2.13,0-3.99,1.42-4.7,3.37Z"/>
  <path d="M214.63,58.86h5.76v29.17h-5.85l.09-29.17Z"/>
  <path d="M243.89,79.17h-15.25c.09,2.66,2.31,4.7,4.88,4.7,2.39,0,4.08-1.24,4.61-3.1h5.59c-.98,5.05-4.7,7.98-10.2,7.98-6.47,0-10.73-4.79-10.73-10.91-.18-5.85,4.43-10.73,10.29-10.91h.35c6.47,0,10.46,3.99,10.46,11.35v.89h0ZM228.91,74.74h9.58c-.53-2.04-2.22-3.37-4.88-3.37-2.22,0-4.08,1.42-4.7,3.37Z"/>
  <path d="M258.7,67.46v5.5h-3.1c-2.22,0-3.37,1.06-3.37,3.37v11.71h-5.85v-20.57h5.41v3.81c.18-2.22,2.04-3.9,4.26-3.81h2.66Z"/>
  <path d="M260.3,81.3h5.94c-.09,1.24.8,2.22,1.95,2.39h.35c1.33,0,2.22-.71,2.22-1.68s-.89-1.77-2.75-2.31l-2.66-.8c-2.75-.8-4.61-2.66-4.61-5.68,0-3.81,3.46-6.3,7.71-6.3,4.88,0,7.54,2.75,7.54,6.56h-5.5c0-1.06-.89-1.95-1.95-1.95h-.09c-1.15,0-1.95.71-1.95,1.42,0,.98.8,1.42,2.39,1.86l3.01.8c2.75.71,4.7,2.66,4.7,5.68,0,3.9-3.01,7.27-7.89,7.27-4.79.09-8.42-2.75-8.42-7.27Z"/>
  <path d="M278.57,68.35h.53c1.42,0,2.75-.71,2.93-2.84-.27.09-.53.18-.8.18-1.95.09-3.55-1.51-3.64-3.46v-.18c0-2.04,1.68-3.64,3.64-3.64h0c2.66,0,4.08,2.39,4.08,5.59,0,5.05-2.48,7.45-5.94,7.45h-.89l.09-3.1Z"/>
  <path d="M134.47,110.92c0-8.96,6.65-15.16,14.72-15.16s12.77,4.35,13.83,11.26h-6.3c-.89-3.37-3.64-5.5-7.63-5.5-4.7,0-8.51,3.81-8.51,9.4s3.81,9.49,8.51,9.49c3.9,0,6.65-2.04,7.63-5.5h6.38c-1.24,7.01-6.74,11.26-14.01,11.26-8.07-.09-14.63-6.3-14.63-15.25Z"/>
  <path d="M165.68,96.37h5.85v11.35c1.42-2.22,3.9-3.55,6.56-3.37,4.08,0,7.01,2.84,7.01,7.63v13.57h-5.85v-11.97c.09-2.13-1.51-3.9-3.64-3.99-2.13-.09-3.9,1.51-3.99,3.64v12.24h-5.85l-.09-29.09Z"/>
  <path d="M187.32,115.26c0-6.03,4.43-10.91,11.08-10.91s11.17,4.79,11.17,10.91-4.43,10.91-11.17,10.91-11.08-4.88-11.08-10.91ZM203.72,115.26c-.09-2.93-2.48-5.23-5.41-5.14s-5.23,2.48-5.14,5.41c.09,2.93,2.39,5.14,5.32,5.14,2.84.09,5.23-2.13,5.32-4.97-.09-.18-.09-.35-.09-.44Z"/>
  <path d="M211,98.68c0-2.04,1.6-3.64,3.64-3.64s3.64,1.6,3.64,3.64-1.6,3.64-3.64,3.64h0c-1.95,0-3.64-1.6-3.64-3.64h0ZM211.79,104.97h5.85v20.57h-5.85v-20.57h0Z"/>
  <path d="M219.86,115.26c-.18-5.85,4.35-10.73,10.2-10.91h.62c6.47,0,10.02,3.46,10.64,8.25h-6.12c-.62-1.68-2.04-2.84-4.52-2.84-3.01.18-5.32,2.84-5.05,5.85.18,2.75,2.39,4.88,5.05,5.05,2.48,0,3.9-1.06,4.52-2.84h6.12c-.98,5.05-4.35,8.25-10.64,8.25-5.85.18-10.73-4.43-10.91-10.2.09-.18.09-.44.09-.62Z"/>
  <path d="M263.49,116.59h-15.25c.09,2.66,2.31,4.7,4.97,4.7,2.39,0,4.08-1.24,4.61-3.1h5.59c-.98,5.05-4.7,7.98-10.2,7.98-6.47,0-10.73-4.79-10.73-10.91-.18-5.85,4.43-10.73,10.29-10.91h.35c6.47,0,10.37,3.99,10.37,11.35v.89ZM248.51,112.25h9.58c-.62-2.04-2.22-3.37-4.88-3.37-2.13,0-4.08,1.33-4.7,3.37Z"/>
  <polygon points="261.54 97.08 265.53 97.08 265.53 97.97 264.02 97.97 264.02 102.58 263.05 102.58 263.05 97.97 261.54 97.97 261.54 97.08"/>
  <path d="M268.99,101.16l-1.51-4.08h-1.15v5.5h.89v-3.01c0-.27,0-.53-.09-.8l1.42,3.9h.71l1.42-3.9v3.81h.89v-5.5h-1.15l-1.42,4.08Z"/>
  <g>
    <path class="cls-2" d="M174.99,293.85h-20.84v-3.72l11-9.31c1.68-1.42,2.57-2.84,2.57-4.26,0-.89-.27-1.6-.89-2.04-.62-.53-1.42-.71-2.48-.71s-1.95.27-2.48.8c-.62.53-.89,1.33-.98,2.31h-6.65c0-2.48.89-4.52,2.66-6.12s4.35-2.31,7.63-2.31c3.1,0,5.59.71,7.45,2.13,1.86,1.42,2.84,3.28,2.84,5.68,0,1.51-.44,3.01-1.42,4.35s-2.22,2.66-3.72,3.9l-5.05,4.17h10.46v5.14h-.09Z"/>
    <path class="cls-2" d="M193.7,293.5c-1.51.53-3.28.89-5.14.89s-3.55-.27-5.14-.89c-1.51-.53-2.93-1.42-3.99-2.48-1.15-1.06-2.04-2.39-2.66-4.08s-.98-3.55-.98-5.59.35-3.9.98-5.59c.62-1.68,1.51-3.01,2.66-4.08s2.48-1.86,3.99-2.48c1.51-.53,3.28-.89,5.14-.89s3.55.27,5.14.89c1.51.53,2.93,1.42,3.99,2.48,1.15,1.06,2.04,2.39,2.66,4.08s.98,3.55.98,5.59-.35,3.9-.98,5.59c-.62,1.68-1.51,3.01-2.66,4.08-1.15,1.06-2.48,1.86-3.99,2.48ZM184.48,287.02c1.06,1.33,2.39,1.95,4.08,1.95,1.6,0,2.93-.62,4.08-1.95,1.06-1.33,1.6-3.19,1.6-5.68s-.53-4.35-1.6-5.68-2.39-1.95-4.08-1.95-3.01.62-4.08,1.95c-1.06,1.33-1.6,3.19-1.6,5.68s.53,4.35,1.6,5.68Z"/>
    <path class="cls-2" d="M222.97,293.85h-20.84v-3.72l11-9.31c1.68-1.42,2.57-2.84,2.57-4.26,0-.89-.27-1.6-.89-2.04-.62-.53-1.42-.71-2.48-.71s-1.95.27-2.48.8c-.62.53-.89,1.33-.98,2.31h-6.65c0-2.48.89-4.52,2.66-6.12s4.35-2.31,7.63-2.31c3.1,0,5.59.71,7.45,2.13s2.84,3.28,2.84,5.68c0,1.51-.44,3.01-1.42,4.35s-2.22,2.66-3.72,3.9l-5.05,4.17h10.46v5.14h-.09Z"/>
    <path class="cls-2" d="M244.07,298.99h-7.01v-7.09h-13.12v-4.61l12.33-18.09h7.8v17.65h3.64v5.05h-3.64v7.09ZM237.15,277.36l-6.21,9.49h6.03v-6.65c0-.71.09-1.68.18-2.84Z"/>
  </g>
</svg>